<svg xmlns="http://www.w3.org/2000/svg" xmlns:xlink="http://www.w3.org/1999/xlink" width="500" zoomAndPan="magnify" viewBox="0 0 375 374.999991" height="500" preserveAspectRatio="xMidYMid meet" version="1.0"><defs><g/><clipPath id="65e48be352"><path d="M 66.433594 134.375 L 157.835938 134.375 L 157.835938 213.875 L 66.433594 213.875 Z M 66.433594 134.375 " clip-rule="nonzero"/></clipPath></defs><rect x="-37.5" width="450" fill="#ffffff" y="-37.499999" height="449.999989" fill-opacity="1"/><rect x="-37.5" width="450" fill="#ffffff" y="-37.499999" height="449.999989" fill-opacity="1"/><rect x="-37.5" width="450" fill="#ffffff" y="-37.499999" height="449.999989" fill-opacity="1"/><g clip-path="url(#65e48be352)"><path fill="#00c2cb" d="M 117.820312 145.613281 C 120.089844 147.886719 120.082031 151.570312 117.796875 153.832031 C 115.515625 156.09375 111.824219 156.082031 109.554688 153.808594 C 107.28125 151.53125 107.292969 147.851562 109.578125 145.589844 C 111.859375 143.324219 115.550781 143.335938 117.820312 145.613281 Z M 138.964844 166.308594 C 141.445312 170.253906 140.25 175.453125 136.296875 177.925781 C 132.339844 180.398438 127.121094 179.207031 124.640625 175.265625 C 122.160156 171.320312 123.355469 166.117188 127.3125 163.644531 C 131.269531 161.171875 136.484375 162.363281 138.964844 166.308594 Z M 124.488281 159.761719 C 124.613281 159.679688 124.738281 159.597656 124.867188 159.519531 C 124.996094 159.441406 125.121094 159.363281 125.253906 159.289062 C 125.378906 159.21875 125.511719 159.148438 125.648438 159.074219 L 125.730469 159.03125 L 125.707031 158.941406 L 125.269531 157.144531 C 125.261719 157.117188 125.265625 157.09375 125.277344 157.070312 C 125.289062 157.046875 125.308594 157.027344 125.335938 157.019531 L 125.449219 156.972656 L 125.695312 156.878906 L 127.292969 156.253906 L 127.652344 156.113281 C 127.679688 156.101562 127.707031 156.101562 127.730469 156.113281 C 127.753906 156.121094 127.777344 156.140625 127.789062 156.164062 L 128.726562 157.835938 L 128.769531 157.914062 L 128.855469 157.894531 C 129 157.863281 129.148438 157.832031 129.292969 157.804688 C 129.4375 157.777344 129.582031 157.75 129.730469 157.726562 C 129.882812 157.703125 130.03125 157.683594 130.175781 157.664062 C 130.316406 157.648438 130.464844 157.632812 130.621094 157.617188 L 130.707031 157.609375 L 130.726562 157.523438 L 131.097656 155.640625 C 131.101562 155.613281 131.117188 155.589844 131.140625 155.578125 C 131.160156 155.5625 131.1875 155.550781 131.214844 155.554688 L 131.21875 155.554688 L 131.597656 155.578125 L 133.3125 155.683594 L 133.695312 155.707031 C 133.722656 155.707031 133.746094 155.71875 133.765625 155.734375 C 133.785156 155.753906 133.796875 155.777344 133.796875 155.804688 L 133.808594 155.914062 L 133.9375 157.648438 L 133.945312 157.742188 L 134.039062 157.757812 C 134.179688 157.78125 134.328125 157.808594 134.476562 157.839844 C 134.621094 157.871094 134.769531 157.902344 134.910156 157.9375 C 135.054688 157.96875 135.199219 158.007812 135.347656 158.046875 C 135.492188 158.089844 135.636719 158.132812 135.78125 158.175781 L 135.867188 158.203125 L 135.914062 158.128906 L 136.960938 156.539062 C 136.976562 156.515625 137 156.5 137.023438 156.496094 C 137.046875 156.488281 137.074219 156.488281 137.097656 156.5 L 137.207031 156.550781 L 137.449219 156.667969 L 137.457031 156.671875 L 137.460938 156.671875 L 138.996094 157.40625 L 139.347656 157.574219 C 139.371094 157.585938 139.390625 157.609375 139.402344 157.632812 C 139.410156 157.65625 139.410156 157.683594 139.402344 157.710938 L 139.398438 157.71875 L 138.832031 159.476562 L 138.804688 159.5625 L 138.882812 159.613281 C 139.011719 159.695312 139.136719 159.777344 139.253906 159.855469 C 139.378906 159.941406 139.5 160.027344 139.621094 160.113281 C 139.734375 160.199219 139.851562 160.289062 139.976562 160.386719 C 140.101562 160.484375 140.214844 160.578125 140.328125 160.671875 L 140.394531 160.730469 L 140.46875 160.679688 L 142.0625 159.617188 C 142.085938 159.605469 142.113281 159.597656 142.136719 159.601562 C 142.164062 159.605469 142.1875 159.617188 142.207031 159.636719 L 142.273438 159.714844 L 142.460938 159.925781 L 143.597656 161.210938 L 143.855469 161.5 C 143.875 161.519531 143.882812 161.546875 143.882812 161.570312 C 143.882812 161.597656 143.871094 161.625 143.855469 161.644531 L 143.851562 161.644531 L 142.644531 163.042969 L 142.585938 163.113281 L 142.636719 163.1875 C 142.726562 163.308594 142.808594 163.433594 142.886719 163.554688 C 142.96875 163.679688 143.050781 163.804688 143.128906 163.933594 C 143.203125 164.058594 143.28125 164.191406 143.355469 164.320312 C 143.425781 164.449219 143.496094 164.578125 143.566406 164.714844 L 143.609375 164.796875 L 143.695312 164.777344 L 145.585938 164.417969 C 145.613281 164.414062 145.640625 164.417969 145.664062 164.429688 C 145.6875 164.445312 145.703125 164.46875 145.710938 164.492188 L 145.714844 164.5 L 145.835938 164.855469 L 146.382812 166.476562 L 146.507812 166.84375 C 146.515625 166.871094 146.511719 166.894531 146.503906 166.917969 C 146.496094 166.941406 146.476562 166.960938 146.453125 166.976562 L 146.34375 167.027344 C 146.105469 167.144531 145.910156 167.238281 145.742188 167.316406 L 145.734375 167.320312 C 145.453125 167.457031 145.246094 167.554688 145.097656 167.636719 C 144.9375 167.726562 144.84375 167.800781 144.800781 167.882812 L 144.792969 167.898438 C 144.765625 167.964844 144.761719 168.046875 144.773438 168.15625 C 144.78125 168.242188 144.804688 168.359375 144.832031 168.511719 C 144.855469 168.648438 144.886719 168.808594 144.917969 169.007812 C 144.945312 169.203125 144.972656 169.429688 144.996094 169.695312 L 145.003906 169.785156 L 145.089844 169.800781 L 146.960938 170.171875 C 146.988281 170.175781 147.011719 170.191406 147.027344 170.210938 C 147.042969 170.234375 147.050781 170.257812 147.050781 170.289062 L 147.027344 170.667969 L 146.925781 172.378906 L 146.902344 172.761719 C 146.902344 172.789062 146.890625 172.8125 146.871094 172.832031 C 146.851562 172.851562 146.828125 172.863281 146.800781 172.863281 L 146.695312 172.871094 L 144.941406 173.003906 L 144.851562 173.011719 L 144.832031 173.101562 C 144.808594 173.246094 144.78125 173.390625 144.746094 173.539062 C 144.71875 173.683594 144.683594 173.828125 144.648438 173.972656 C 144.613281 174.117188 144.574219 174.261719 144.53125 174.410156 C 144.488281 174.558594 144.445312 174.703125 144.402344 174.835938 L 144.375 174.921875 L 144.449219 174.972656 L 146.03125 176.007812 C 146.054688 176.023438 146.070312 176.046875 146.074219 176.070312 C 146.082031 176.09375 146.082031 176.121094 146.070312 176.148438 L 146.054688 176.171875 L 146.023438 176.242188 L 145.902344 176.496094 L 145.164062 178.039062 L 144.996094 178.386719 C 144.984375 178.410156 144.960938 178.429688 144.9375 178.441406 C 144.914062 178.449219 144.882812 178.449219 144.859375 178.441406 L 144.851562 178.4375 L 143.078125 177.867188 L 142.988281 177.839844 L 142.941406 177.917969 C 142.859375 178.039062 142.777344 178.160156 142.691406 178.285156 C 142.605469 178.410156 142.519531 178.53125 142.429688 178.648438 C 142.339844 178.769531 142.246094 178.886719 142.152344 179.003906 C 142.0625 179.117188 141.96875 179.234375 141.867188 179.347656 L 141.808594 179.417969 L 141.859375 179.492188 L 142.914062 181.070312 C 142.929688 181.089844 142.933594 181.117188 142.933594 181.144531 C 142.929688 181.167969 142.917969 181.191406 142.898438 181.210938 L 142.820312 181.277344 L 142.605469 181.464844 L 141.320312 182.601562 L 141.03125 182.855469 C 141.011719 182.871094 140.984375 182.882812 140.960938 182.882812 C 140.933594 182.882812 140.90625 182.871094 140.886719 182.855469 L 140.886719 182.851562 L 139.476562 181.636719 L 139.40625 181.578125 L 139.328125 181.628906 C 139.207031 181.714844 139.082031 181.796875 138.957031 181.878906 C 138.832031 181.957031 138.707031 182.035156 138.578125 182.113281 C 138.449219 182.1875 138.320312 182.261719 138.1875 182.335938 C 138.050781 182.410156 137.921875 182.480469 137.789062 182.542969 L 137.710938 182.585938 L 137.726562 182.671875 L 138.085938 184.542969 C 138.09375 184.570312 138.085938 184.597656 138.074219 184.621094 C 138.058594 184.644531 138.039062 184.660156 138.011719 184.667969 L 138.007812 184.671875 L 137.648438 184.789062 L 136.023438 185.335938 L 135.65625 185.457031 C 135.628906 185.46875 135.605469 185.464844 135.582031 185.457031 C 135.554688 185.445312 135.535156 185.429688 135.523438 185.402344 L 135.464844 185.285156 L 134.695312 183.738281 L 134.65625 183.65625 L 134.566406 183.675781 C 134.421875 183.703125 134.273438 183.734375 134.125 183.757812 C 133.972656 183.785156 133.828125 183.808594 133.683594 183.828125 C 133.542969 183.847656 133.394531 183.867188 133.238281 183.882812 C 133.085938 183.898438 132.9375 183.914062 132.789062 183.925781 L 132.699219 183.929688 L 132.679688 184.019531 L 132.316406 185.871094 C 132.308594 185.898438 132.296875 185.921875 132.273438 185.9375 C 132.253906 185.953125 132.226562 185.960938 132.199219 185.957031 L 132.195312 185.957031 L 131.816406 185.933594 L 130.101562 185.832031 L 129.71875 185.808594 C 129.691406 185.808594 129.664062 185.796875 129.648438 185.777344 C 129.628906 185.757812 129.617188 185.734375 129.613281 185.707031 L 129.609375 185.621094 L 129.472656 183.839844 L 129.464844 183.75 L 129.375 183.730469 C 129.226562 183.703125 129.078125 183.675781 128.933594 183.644531 C 128.78125 183.609375 128.636719 183.574219 128.5 183.539062 C 128.359375 183.503906 128.214844 183.464844 128.066406 183.417969 C 127.925781 183.378906 127.78125 183.332031 127.640625 183.285156 L 127.550781 183.257812 L 127.503906 183.332031 L 126.472656 184.898438 C 126.457031 184.921875 126.433594 184.9375 126.410156 184.941406 C 126.386719 184.949219 126.359375 184.949219 126.332031 184.9375 L 126.253906 184.898438 L 125.984375 184.769531 L 124.4375 184.03125 L 124.085938 183.863281 C 124.0625 183.851562 124.042969 183.828125 124.03125 183.804688 C 124.023438 183.78125 124.023438 183.75 124.03125 183.726562 L 124.035156 183.71875 L 124.609375 181.9375 L 124.636719 181.851562 L 124.5625 181.800781 C 124.441406 181.722656 124.316406 181.636719 124.191406 181.546875 C 124.066406 181.460938 123.945312 181.375 123.828125 181.285156 C 123.710938 181.195312 123.59375 181.105469 123.476562 181.007812 C 123.363281 180.914062 123.246094 180.820312 123.132812 180.71875 L 123.0625 180.660156 L 122.988281 180.707031 L 121.417969 181.753906 C 121.398438 181.769531 121.371094 181.773438 121.34375 181.769531 C 121.320312 181.765625 121.296875 181.753906 121.277344 181.734375 L 121.210938 181.660156 L 121.019531 181.445312 L 119.882812 180.160156 L 119.628906 179.871094 C 119.609375 179.851562 119.601562 179.828125 119.601562 179.800781 C 119.601562 179.773438 119.609375 179.75 119.628906 179.730469 L 119.628906 179.726562 L 120.851562 178.3125 L 120.914062 178.242188 L 120.863281 178.167969 C 120.777344 178.042969 120.695312 177.917969 120.617188 177.796875 C 120.539062 177.671875 120.460938 177.542969 120.386719 177.414062 L 120.363281 177.378906 L 120.328125 177.316406 C 120.265625 177.207031 120.203125 177.089844 120.136719 176.972656 C 120.074219 176.851562 120.011719 176.738281 119.957031 176.621094 L 119.917969 176.542969 L 119.828125 176.558594 L 117.964844 176.914062 C 117.9375 176.917969 117.910156 176.914062 117.890625 176.898438 C 117.867188 176.886719 117.847656 176.863281 117.839844 176.835938 L 117.839844 176.832031 L 117.71875 176.476562 L 117.171875 174.851562 L 117.046875 174.488281 C 117.039062 174.460938 117.039062 174.433594 117.050781 174.410156 C 117.058594 174.386719 117.078125 174.367188 117.101562 174.355469 L 117.21875 174.296875 L 118.78125 173.527344 L 118.863281 173.488281 L 118.84375 173.394531 C 118.816406 173.253906 118.789062 173.109375 118.765625 172.957031 C 118.738281 172.804688 118.714844 172.65625 118.695312 172.515625 C 118.675781 172.363281 118.660156 172.214844 118.644531 172.070312 C 118.628906 171.921875 118.617188 171.773438 118.609375 171.625 L 118.601562 171.53125 L 118.511719 171.515625 L 116.667969 171.152344 C 116.640625 171.144531 116.617188 171.128906 116.601562 171.109375 C 116.585938 171.089844 116.578125 171.0625 116.582031 171.035156 L 116.582031 171.03125 L 116.605469 170.652344 L 116.695312 169.109375 L 116.707031 168.941406 L 116.730469 168.558594 C 116.730469 168.53125 116.742188 168.507812 116.761719 168.488281 C 116.777344 168.46875 116.800781 168.457031 116.828125 168.457031 L 116.902344 168.453125 L 118.714844 168.316406 L 118.804688 168.308594 L 118.824219 168.21875 C 118.851562 168.078125 118.882812 167.933594 118.917969 167.78125 C 118.949219 167.636719 118.984375 167.492188 119.023438 167.34375 C 119.0625 167.207031 119.101562 167.066406 119.148438 166.917969 C 119.191406 166.769531 119.238281 166.628906 119.285156 166.492188 L 119.316406 166.40625 L 119.238281 166.355469 L 117.675781 165.332031 C 117.65625 165.316406 117.640625 165.292969 117.632812 165.269531 C 117.625 165.246094 117.628906 165.21875 117.640625 165.195312 L 117.691406 165.082031 L 117.804688 164.847656 L 117.808594 164.835938 L 117.8125 164.832031 L 118.546875 163.300781 L 118.710938 162.953125 C 118.722656 162.929688 118.746094 162.910156 118.769531 162.902344 C 118.796875 162.890625 118.824219 162.890625 118.847656 162.902344 L 118.855469 162.902344 L 120.660156 163.480469 L 120.746094 163.507812 L 120.796875 163.433594 C 120.855469 163.34375 120.921875 163.25 120.988281 163.15625 C 121.058594 163.058594 121.125 162.964844 121.191406 162.875 C 121.261719 162.78125 121.332031 162.691406 121.402344 162.601562 C 121.464844 162.519531 121.535156 162.433594 121.617188 162.339844 L 121.671875 162.269531 L 121.625 162.195312 L 120.550781 160.59375 C 120.535156 160.570312 120.527344 160.542969 120.53125 160.519531 C 120.535156 160.492188 120.546875 160.46875 120.566406 160.449219 L 120.644531 160.382812 L 120.855469 160.195312 L 122.144531 159.0625 L 122.433594 158.808594 C 122.453125 158.789062 122.480469 158.78125 122.503906 158.78125 C 122.53125 158.78125 122.558594 158.789062 122.578125 158.808594 L 123.972656 160.007812 L 124.042969 160.070312 L 124.117188 160.015625 C 124.242188 159.925781 124.367188 159.84375 124.488281 159.761719 Z M 108.925781 170.183594 C 111.132812 173.28125 110.402344 177.578125 107.296875 179.78125 C 104.1875 181.980469 99.878906 181.253906 97.667969 178.15625 C 95.460938 175.054688 96.191406 170.757812 99.300781 168.558594 C 102.410156 166.355469 106.71875 167.082031 108.925781 170.183594 Z M 96.8125 165.523438 C 96.910156 165.449219 97.011719 165.378906 97.113281 165.308594 C 97.210938 165.238281 97.3125 165.171875 97.417969 165.105469 C 97.515625 165.039062 97.621094 164.976562 97.726562 164.910156 L 97.792969 164.871094 L 97.769531 164.796875 L 97.328125 163.355469 C 97.320312 163.332031 97.324219 163.3125 97.332031 163.292969 C 97.339844 163.273438 97.355469 163.257812 97.375 163.246094 L 97.46875 163.207031 L 97.46875 163.203125 L 97.660156 163.117188 L 98.9375 162.53125 L 99.222656 162.402344 C 99.242188 162.390625 99.265625 162.390625 99.285156 162.398438 C 99.304688 162.402344 99.324219 162.417969 99.335938 162.4375 L 100.175781 163.757812 L 100.21875 163.816406 L 100.289062 163.796875 C 100.40625 163.761719 100.523438 163.730469 100.640625 163.703125 C 100.753906 163.671875 100.875 163.644531 100.992188 163.621094 C 101.113281 163.59375 101.234375 163.570312 101.351562 163.546875 C 101.464844 163.527344 101.585938 163.507812 101.710938 163.488281 L 101.785156 163.480469 L 101.792969 163.40625 L 102.007812 161.855469 C 102.011719 161.832031 102.023438 161.8125 102.039062 161.800781 C 102.054688 161.785156 102.078125 161.777344 102.101562 161.78125 L 102.414062 161.78125 L 103.816406 161.785156 L 104.128906 161.785156 C 104.152344 161.785156 104.171875 161.792969 104.1875 161.808594 C 104.203125 161.820312 104.214844 161.839844 104.21875 161.863281 L 104.230469 161.949219 L 104.417969 163.359375 L 104.429688 163.433594 L 104.503906 163.441406 C 104.621094 163.457031 104.742188 163.472656 104.867188 163.488281 C 104.988281 163.507812 105.105469 163.527344 105.226562 163.546875 C 105.34375 163.566406 105.464844 163.59375 105.585938 163.621094 C 105.707031 163.644531 105.828125 163.671875 105.945312 163.703125 L 106.015625 163.71875 L 106.054688 163.65625 L 106.832031 162.3125 C 106.84375 162.292969 106.859375 162.28125 106.878906 162.273438 C 106.898438 162.265625 106.921875 162.265625 106.941406 162.273438 L 107.03125 162.3125 L 107.234375 162.394531 L 107.242188 162.398438 L 107.246094 162.398438 L 108.53125 162.925781 L 108.824219 163.042969 C 108.847656 163.054688 108.863281 163.070312 108.871094 163.089844 C 108.878906 163.109375 108.882812 163.132812 108.875 163.152344 L 108.875 163.160156 L 108.496094 164.621094 L 108.476562 164.691406 L 108.542969 164.726562 C 108.652344 164.789062 108.753906 164.847656 108.855469 164.910156 C 108.960938 164.972656 109.066406 165.039062 109.167969 165.101562 C 109.261719 165.164062 109.367188 165.234375 109.472656 165.308594 C 109.574219 165.382812 109.675781 165.453125 109.769531 165.523438 L 109.828125 165.566406 L 109.886719 165.523438 L 111.136719 164.585938 C 111.152344 164.570312 111.175781 164.566406 111.195312 164.566406 C 111.214844 164.570312 111.238281 164.578125 111.253906 164.59375 L 111.476562 164.816406 L 112.464844 165.808594 L 112.683594 166.035156 C 112.703125 166.050781 112.710938 166.070312 112.710938 166.089844 C 112.710938 166.113281 112.707031 166.132812 112.691406 166.152344 L 111.769531 167.347656 L 111.726562 167.40625 L 111.773438 167.464844 C 111.847656 167.5625 111.921875 167.660156 111.992188 167.753906 C 112.066406 167.851562 112.136719 167.953125 112.207031 168.050781 C 112.273438 168.152344 112.34375 168.253906 112.410156 168.359375 C 112.472656 168.457031 112.539062 168.5625 112.601562 168.671875 L 112.640625 168.730469 L 112.710938 168.714844 L 114.234375 168.332031 C 114.257812 168.324219 114.28125 168.328125 114.296875 168.339844 C 114.316406 168.347656 114.332031 168.367188 114.339844 168.386719 L 114.34375 168.390625 L 114.457031 168.675781 L 114.980469 169.972656 L 115.097656 170.265625 C 115.105469 170.289062 115.105469 170.308594 115.101562 170.328125 C 115.09375 170.347656 115.078125 170.363281 115.058594 170.375 L 114.976562 170.425781 C 114.785156 170.53125 114.632812 170.617188 114.496094 170.6875 L 114.492188 170.691406 C 114.265625 170.816406 114.105469 170.902344 113.988281 170.976562 C 113.859375 171.058594 113.789062 171.125 113.757812 171.195312 L 113.753906 171.199219 L 113.75 171.207031 C 113.730469 171.261719 113.734375 171.328125 113.746094 171.417969 C 113.757812 171.488281 113.78125 171.582031 113.8125 171.703125 C 113.839844 171.816406 113.871094 171.945312 113.902344 172.105469 C 113.9375 172.261719 113.96875 172.445312 114 172.660156 L 114.011719 172.734375 L 114.085938 172.742188 L 115.628906 172.957031 C 115.648438 172.960938 115.667969 172.972656 115.683594 172.988281 C 115.695312 173.003906 115.703125 173.027344 115.703125 173.046875 L 115.703125 173.359375 L 115.699219 174.757812 L 115.699219 175.074219 C 115.699219 175.097656 115.691406 175.117188 115.675781 175.132812 L 115.679688 175.132812 C 115.664062 175.148438 115.644531 175.160156 115.621094 175.160156 L 115.535156 175.171875 L 114.113281 175.359375 L 114.039062 175.371094 L 114.03125 175.445312 C 114.015625 175.5625 114 175.683594 113.980469 175.808594 C 113.960938 175.929688 113.941406 176.046875 113.917969 176.167969 C 113.894531 176.285156 113.871094 176.40625 113.84375 176.527344 C 113.816406 176.652344 113.789062 176.769531 113.757812 176.882812 L 113.742188 176.953125 L 113.804688 176.988281 L 115.140625 177.761719 C 115.160156 177.773438 115.175781 177.789062 115.179688 177.808594 C 115.1875 177.828125 115.1875 177.851562 115.179688 177.871094 L 115.171875 177.894531 L 115.144531 177.953125 L 115.058594 178.164062 L 114.53125 179.457031 L 114.410156 179.746094 L 114.410156 179.75 C 114.402344 179.769531 114.386719 179.785156 114.367188 179.792969 C 114.347656 179.804688 114.324219 179.804688 114.300781 179.796875 L 114.296875 179.796875 L 112.820312 179.414062 L 112.75 179.394531 L 112.710938 179.460938 C 112.652344 179.5625 112.59375 179.667969 112.527344 179.773438 C 112.464844 179.878906 112.398438 179.980469 112.332031 180.082031 C 112.261719 180.183594 112.195312 180.285156 112.121094 180.386719 C 112.054688 180.480469 111.980469 180.578125 111.90625 180.679688 L 111.859375 180.738281 L 111.90625 180.796875 L 112.839844 182.03125 C 112.855469 182.050781 112.859375 182.070312 112.859375 182.09375 C 112.855469 182.113281 112.847656 182.132812 112.832031 182.148438 L 112.609375 182.371094 L 111.613281 183.355469 L 111.390625 183.578125 C 111.375 183.59375 111.351562 183.601562 111.332031 183.601562 C 111.308594 183.601562 111.289062 183.597656 111.273438 183.582031 L 111.269531 183.582031 L 110.0625 182.65625 L 110.003906 182.613281 L 109.945312 182.65625 C 109.847656 182.734375 109.75 182.804688 109.652344 182.875 C 109.554688 182.949219 109.453125 183.019531 109.351562 183.085938 C 109.253906 183.152344 109.152344 183.21875 109.046875 183.285156 C 108.941406 183.351562 108.835938 183.414062 108.730469 183.476562 L 108.667969 183.511719 L 108.6875 183.582031 L 109.070312 185.089844 C 109.074219 185.113281 109.070312 185.136719 109.0625 185.15625 C 109.050781 185.175781 109.03125 185.1875 109.011719 185.195312 L 109.007812 185.199219 L 108.722656 185.3125 L 107.421875 185.832031 L 107.128906 185.949219 C 107.109375 185.957031 107.085938 185.957031 107.066406 185.953125 C 107.046875 185.945312 107.03125 185.929688 107.019531 185.914062 L 106.964844 185.820312 L 106.265625 184.59375 L 106.226562 184.527344 L 106.15625 184.546875 C 106.039062 184.578125 105.921875 184.609375 105.800781 184.636719 C 105.679688 184.664062 105.558594 184.691406 105.445312 184.714844 C 105.332031 184.738281 105.210938 184.757812 105.085938 184.78125 C 104.960938 184.800781 104.839844 184.820312 104.71875 184.832031 L 104.648438 184.84375 L 104.636719 184.917969 L 104.425781 186.445312 C 104.421875 186.464844 104.410156 186.484375 104.394531 186.5 C 104.378906 186.511719 104.355469 186.519531 104.335938 186.519531 L 104.023438 186.519531 L 102.621094 186.515625 L 102.304688 186.515625 C 102.28125 186.511719 102.261719 186.503906 102.246094 186.492188 C 102.230469 186.476562 102.21875 186.457031 102.214844 186.4375 L 102.207031 186.367188 L 102.011719 184.921875 L 102.003906 184.847656 L 101.929688 184.835938 C 101.804688 184.820312 101.683594 184.804688 101.5625 184.785156 C 101.4375 184.765625 101.320312 184.742188 101.203125 184.71875 C 101.089844 184.699219 100.96875 184.671875 100.847656 184.644531 C 100.726562 184.617188 100.609375 184.585938 100.492188 184.554688 L 100.417969 184.535156 L 100.382812 184.597656 L 99.613281 185.921875 C 99.605469 185.941406 99.585938 185.957031 99.566406 185.960938 C 99.546875 185.96875 99.523438 185.96875 99.503906 185.960938 L 99.484375 185.953125 L 99.4375 185.933594 L 99.210938 185.84375 L 97.914062 185.3125 L 97.621094 185.191406 C 97.601562 185.183594 97.585938 185.167969 97.574219 185.148438 C 97.566406 185.128906 97.5625 185.105469 97.570312 185.082031 L 97.574219 185.078125 L 97.957031 183.597656 L 97.976562 183.523438 L 97.910156 183.488281 C 97.808594 183.429688 97.707031 183.367188 97.597656 183.300781 C 97.492188 183.234375 97.390625 183.167969 97.289062 183.101562 C 97.191406 183.035156 97.089844 182.964844 96.992188 182.894531 C 96.894531 182.824219 96.792969 182.75 96.695312 182.671875 L 96.636719 182.628906 L 96.578125 182.671875 L 95.347656 183.597656 C 95.332031 183.609375 95.308594 183.613281 95.289062 183.613281 C 95.265625 183.613281 95.246094 183.601562 95.230469 183.585938 L 95.007812 183.363281 L 94.019531 182.371094 L 93.800781 182.148438 C 93.78125 182.128906 93.773438 182.109375 93.773438 182.089844 C 93.773438 182.066406 93.777344 182.046875 93.792969 182.03125 L 93.792969 182.027344 L 94.726562 180.816406 L 94.769531 180.757812 L 94.726562 180.699219 C 94.648438 180.601562 94.578125 180.503906 94.507812 180.40625 C 94.4375 180.308594 94.367188 180.207031 94.300781 180.105469 L 94.28125 180.078125 L 94.25 180.03125 C 94.195312 179.945312 94.136719 179.851562 94.078125 179.757812 C 94.019531 179.664062 93.964844 179.570312 93.914062 179.480469 L 93.878906 179.417969 L 93.804688 179.4375 L 92.304688 179.8125 C 92.28125 179.816406 92.261719 179.8125 92.242188 179.804688 C 92.222656 179.792969 92.207031 179.777344 92.199219 179.757812 L 92.199219 179.753906 L 92.082031 179.46875 L 91.558594 178.167969 L 91.441406 177.878906 C 91.433594 177.855469 91.433594 177.835938 91.441406 177.816406 C 91.445312 177.796875 91.460938 177.777344 91.480469 177.769531 L 91.574219 177.714844 L 92.8125 177.011719 L 92.875 176.976562 L 92.855469 176.902344 C 92.824219 176.789062 92.796875 176.671875 92.769531 176.550781 C 92.742188 176.425781 92.714844 176.308594 92.695312 176.191406 C 92.671875 176.070312 92.648438 175.949219 92.628906 175.832031 C 92.613281 175.710938 92.59375 175.589844 92.578125 175.46875 L 92.570312 175.394531 L 92.496094 175.386719 L 90.976562 175.175781 C 90.953125 175.171875 90.933594 175.160156 90.921875 175.144531 C 90.90625 175.128906 90.898438 175.105469 90.898438 175.082031 L 90.898438 174.773438 L 90.902344 173.511719 L 90.902344 173.058594 C 90.902344 173.035156 90.910156 173.015625 90.925781 173 C 90.9375 172.984375 90.957031 172.972656 90.980469 172.972656 L 91.039062 172.964844 L 92.511719 172.769531 L 92.585938 172.757812 L 92.59375 172.683594 C 92.609375 172.566406 92.628906 172.445312 92.648438 172.324219 C 92.671875 172.203125 92.691406 172.082031 92.71875 171.960938 C 92.742188 171.847656 92.765625 171.730469 92.796875 171.609375 C 92.828125 171.484375 92.859375 171.367188 92.890625 171.253906 L 92.910156 171.183594 L 92.84375 171.144531 L 91.523438 170.382812 C 91.503906 170.371094 91.492188 170.355469 91.484375 170.335938 C 91.476562 170.316406 91.476562 170.292969 91.484375 170.273438 L 91.527344 170.179688 L 91.523438 170.179688 L 91.605469 169.980469 L 91.609375 169.972656 L 92.136719 168.6875 L 92.253906 168.394531 C 92.265625 168.375 92.28125 168.359375 92.300781 168.351562 C 92.320312 168.339844 92.34375 168.339844 92.363281 168.347656 L 92.371094 168.347656 L 93.867188 168.734375 L 93.941406 168.753906 L 93.976562 168.691406 C 94.019531 168.617188 94.070312 168.535156 94.121094 168.453125 C 94.171875 168.371094 94.222656 168.292969 94.273438 168.21875 C 94.324219 168.136719 94.378906 168.058594 94.429688 167.984375 C 94.480469 167.914062 94.535156 167.839844 94.59375 167.757812 L 94.636719 167.699219 L 94.59375 167.640625 L 93.640625 166.386719 C 93.628906 166.367188 93.625 166.347656 93.625 166.324219 C 93.625 166.304688 93.636719 166.285156 93.652344 166.269531 L 93.875 166.046875 L 94.871094 165.0625 L 95.09375 164.839844 C 95.109375 164.828125 95.128906 164.816406 95.152344 164.816406 C 95.171875 164.816406 95.195312 164.820312 95.210938 164.835938 L 95.214844 164.835938 L 96.40625 165.75 L 96.464844 165.796875 L 96.523438 165.746094 C 96.621094 165.667969 96.71875 165.59375 96.8125 165.523438 Z M 96.894531 151.175781 C 98.503906 153.429688 97.972656 156.558594 95.710938 158.160156 C 93.449219 159.761719 90.3125 159.230469 88.707031 156.976562 C 87.097656 154.722656 87.628906 151.59375 89.890625 149.992188 C 92.152344 148.390625 95.289062 148.921875 96.894531 151.175781 Z M 88.082031 147.785156 C 88.152344 147.730469 88.226562 147.679688 88.300781 147.628906 C 88.371094 147.578125 88.445312 147.527344 88.519531 147.480469 C 88.59375 147.433594 88.667969 147.386719 88.746094 147.339844 L 88.792969 147.308594 L 88.777344 147.257812 L 88.457031 146.207031 C 88.453125 146.191406 88.453125 146.175781 88.460938 146.160156 C 88.464844 146.148438 88.476562 146.136719 88.492188 146.128906 L 88.558594 146.097656 L 88.699219 146.03125 L 89.625 145.609375 L 89.835938 145.511719 C 89.847656 145.507812 89.867188 145.503906 89.878906 145.511719 C 89.894531 145.515625 89.910156 145.523438 89.917969 145.539062 L 90.53125 146.5 L 90.558594 146.542969 L 90.609375 146.527344 C 90.695312 146.503906 90.78125 146.480469 90.867188 146.460938 C 90.949219 146.4375 91.035156 146.417969 91.125 146.398438 C 91.210938 146.378906 91.300781 146.363281 91.382812 146.347656 C 91.464844 146.332031 91.554688 146.320312 91.648438 146.304688 L 91.699219 146.296875 L 91.707031 146.246094 L 91.863281 145.117188 C 91.863281 145.097656 91.871094 145.085938 91.882812 145.074219 C 91.898438 145.066406 91.914062 145.058594 91.929688 145.058594 L 91.929688 145.0625 L 92.15625 145.0625 L 93.175781 145.066406 L 93.40625 145.066406 C 93.421875 145.066406 93.4375 145.070312 93.449219 145.082031 C 93.460938 145.089844 93.46875 145.105469 93.46875 145.121094 L 93.480469 145.183594 L 93.617188 146.210938 L 93.625 146.265625 L 93.679688 146.269531 C 93.765625 146.28125 93.851562 146.292969 93.941406 146.304688 C 94.03125 146.316406 94.117188 146.332031 94.203125 146.347656 C 94.289062 146.363281 94.375 146.378906 94.464844 146.398438 C 94.554688 146.417969 94.640625 146.4375 94.726562 146.460938 L 94.777344 146.472656 L 94.804688 146.425781 L 95.371094 145.449219 C 95.378906 145.433594 95.390625 145.425781 95.40625 145.417969 C 95.421875 145.414062 95.4375 145.414062 95.453125 145.421875 L 95.515625 145.449219 L 95.515625 145.445312 L 95.664062 145.507812 L 95.671875 145.511719 L 96.609375 145.894531 L 96.820312 145.980469 C 96.835938 145.988281 96.847656 146 96.855469 146.011719 C 96.863281 146.027344 96.863281 146.042969 96.859375 146.0625 L 96.859375 146.066406 L 96.582031 147.125 L 96.570312 147.179688 L 96.617188 147.207031 C 96.695312 147.25 96.773438 147.292969 96.84375 147.339844 C 96.921875 147.382812 96.996094 147.429688 97.070312 147.480469 C 97.140625 147.523438 97.214844 147.574219 97.292969 147.628906 C 97.367188 147.679688 97.441406 147.734375 97.511719 147.785156 L 97.550781 147.816406 L 97.59375 147.785156 L 98.503906 147.101562 C 98.515625 147.09375 98.53125 147.089844 98.546875 147.089844 C 98.5625 147.089844 98.578125 147.097656 98.589844 147.109375 L 98.75 147.269531 L 99.46875 147.992188 L 99.628906 148.15625 C 99.640625 148.167969 99.648438 148.183594 99.648438 148.199219 C 99.652344 148.214844 99.644531 148.230469 99.636719 148.242188 L 99.632812 148.242188 L 98.964844 149.113281 L 98.933594 149.15625 L 98.96875 149.199219 C 99.023438 149.269531 99.074219 149.339844 99.128906 149.410156 C 99.179688 149.480469 99.230469 149.550781 99.28125 149.625 C 99.332031 149.699219 99.382812 149.773438 99.429688 149.847656 C 99.476562 149.917969 99.523438 149.996094 99.570312 150.074219 L 99.597656 150.121094 L 99.648438 150.105469 L 100.757812 149.828125 C 100.773438 149.824219 100.792969 149.828125 100.804688 149.832031 C 100.816406 149.839844 100.832031 149.855469 100.835938 149.867188 L 100.835938 149.871094 L 100.921875 150.078125 L 101.300781 151.023438 L 101.386719 151.234375 C 101.394531 151.25 101.394531 151.265625 101.386719 151.28125 C 101.382812 151.296875 101.375 151.308594 101.359375 151.316406 L 101.296875 151.351562 C 101.160156 151.429688 101.046875 151.492188 100.949219 151.542969 L 100.945312 151.546875 C 100.78125 151.636719 100.664062 151.699219 100.578125 151.753906 C 100.488281 151.8125 100.433594 151.859375 100.410156 151.910156 L 100.410156 151.914062 L 100.40625 151.921875 C 100.390625 151.960938 100.394531 152.007812 100.40625 152.074219 C 100.414062 152.125 100.429688 152.195312 100.449219 152.28125 C 100.46875 152.363281 100.492188 152.457031 100.519531 152.574219 C 100.542969 152.6875 100.566406 152.820312 100.589844 152.980469 L 100.597656 153.03125 L 100.648438 153.039062 L 101.773438 153.195312 C 101.789062 153.195312 101.800781 153.203125 101.8125 153.214844 C 101.820312 153.226562 101.828125 153.246094 101.828125 153.261719 L 101.828125 153.488281 L 101.824219 154.503906 L 101.824219 154.734375 C 101.824219 154.75 101.820312 154.765625 101.808594 154.777344 C 101.796875 154.789062 101.785156 154.796875 101.769531 154.796875 L 101.703125 154.804688 L 100.671875 154.941406 L 100.617188 154.949219 L 100.609375 155.003906 C 100.597656 155.089844 100.585938 155.179688 100.574219 155.269531 C 100.558594 155.355469 100.542969 155.441406 100.527344 155.53125 C 100.511719 155.617188 100.492188 155.703125 100.472656 155.792969 C 100.453125 155.882812 100.433594 155.96875 100.414062 156.050781 L 100.398438 156.101562 L 100.445312 156.128906 L 101.417969 156.691406 C 101.433594 156.699219 101.441406 156.710938 101.449219 156.726562 C 101.453125 156.738281 101.453125 156.753906 101.445312 156.769531 L 101.441406 156.785156 L 101.421875 156.828125 L 101.359375 156.980469 L 100.972656 157.921875 L 100.886719 158.136719 C 100.878906 158.152344 100.867188 158.164062 100.855469 158.167969 C 100.839844 158.175781 100.820312 158.175781 100.808594 158.171875 L 100.800781 158.171875 L 99.730469 157.894531 L 99.679688 157.878906 L 99.652344 157.925781 C 99.609375 158 99.5625 158.078125 99.515625 158.15625 C 99.46875 158.230469 99.421875 158.304688 99.371094 158.378906 C 99.324219 158.453125 99.273438 158.527344 99.222656 158.597656 C 99.171875 158.671875 99.121094 158.742188 99.0625 158.8125 L 99.03125 158.855469 L 99.0625 158.898438 L 99.742188 159.796875 C 99.753906 159.8125 99.757812 159.828125 99.757812 159.839844 C 99.753906 159.855469 99.75 159.871094 99.738281 159.882812 L 99.695312 159.925781 L 99.574219 160.042969 L 98.851562 160.761719 L 98.6875 160.921875 C 98.675781 160.933594 98.660156 160.9375 98.644531 160.9375 C 98.632812 160.941406 98.613281 160.933594 98.601562 160.925781 L 97.722656 160.253906 L 97.679688 160.21875 L 97.636719 160.253906 C 97.566406 160.308594 97.496094 160.359375 97.425781 160.410156 C 97.351562 160.464844 97.28125 160.515625 97.207031 160.5625 C 97.132812 160.613281 97.058594 160.660156 96.980469 160.710938 C 96.90625 160.757812 96.828125 160.804688 96.753906 160.847656 L 96.707031 160.875 L 96.722656 160.925781 L 97 162.023438 C 97.003906 162.039062 97 162.054688 96.992188 162.070312 C 96.984375 162.082031 96.972656 162.09375 96.957031 162.101562 L 96.746094 162.183594 L 95.800781 162.5625 L 95.589844 162.648438 C 95.574219 162.65625 95.558594 162.65625 95.542969 162.648438 C 95.527344 162.644531 95.515625 162.636719 95.507812 162.621094 L 95.46875 162.554688 L 94.960938 161.660156 L 94.933594 161.613281 L 94.878906 161.628906 C 94.792969 161.652344 94.707031 161.671875 94.621094 161.691406 C 94.53125 161.714844 94.445312 161.734375 94.363281 161.75 C 94.28125 161.765625 94.191406 161.78125 94.101562 161.796875 C 94.011719 161.8125 93.921875 161.824219 93.835938 161.835938 L 93.78125 161.84375 L 93.773438 161.894531 L 93.621094 163.007812 C 93.617188 163.023438 93.609375 163.039062 93.597656 163.046875 C 93.585938 163.058594 93.570312 163.0625 93.554688 163.0625 L 93.328125 163.0625 L 92.304688 163.058594 L 92.078125 163.058594 C 92.0625 163.058594 92.046875 163.054688 92.035156 163.042969 C 92.023438 163.03125 92.015625 163.019531 92.011719 163.003906 L 92.007812 162.949219 L 91.863281 161.898438 L 91.855469 161.84375 L 91.804688 161.839844 C 91.714844 161.828125 91.625 161.8125 91.539062 161.800781 C 91.449219 161.785156 91.359375 161.769531 91.277344 161.753906 C 91.191406 161.738281 91.105469 161.71875 91.015625 161.699219 C 90.929688 161.675781 90.84375 161.65625 90.757812 161.632812 L 90.707031 161.617188 L 90.679688 161.664062 L 90.121094 162.628906 C 90.113281 162.644531 90.101562 162.652344 90.085938 162.65625 C 90.070312 162.664062 90.054688 162.664062 90.039062 162.65625 L 90.027344 162.648438 L 89.992188 162.636719 L 89.828125 162.570312 L 88.882812 162.183594 L 88.671875 162.097656 C 88.65625 162.089844 88.644531 162.078125 88.636719 162.0625 C 88.628906 162.050781 88.628906 162.03125 88.632812 162.015625 L 88.632812 162.011719 L 88.914062 160.933594 L 88.925781 160.882812 L 88.882812 160.855469 C 88.808594 160.8125 88.730469 160.769531 88.652344 160.71875 C 88.578125 160.671875 88.5 160.625 88.429688 160.574219 C 88.355469 160.527344 88.285156 160.476562 88.210938 160.425781 C 88.140625 160.371094 88.066406 160.320312 87.996094 160.265625 L 87.953125 160.230469 L 87.910156 160.261719 L 87.015625 160.933594 C 87.003906 160.945312 86.988281 160.949219 86.972656 160.949219 C 86.957031 160.949219 86.941406 160.941406 86.929688 160.929688 L 86.886719 160.886719 L 86.769531 160.765625 L 86.050781 160.042969 L 85.886719 159.878906 C 85.875 159.871094 85.871094 159.855469 85.871094 159.839844 C 85.867188 159.824219 85.875 159.808594 85.882812 159.796875 L 85.882812 159.792969 L 86.5625 158.914062 L 86.59375 158.871094 L 86.5625 158.828125 C 86.507812 158.757812 86.457031 158.6875 86.40625 158.613281 C 86.351562 158.542969 86.300781 158.46875 86.253906 158.394531 L 86.238281 158.375 L 86.21875 158.339844 C 86.175781 158.277344 86.132812 158.210938 86.089844 158.144531 C 86.050781 158.074219 86.007812 158.007812 85.972656 157.941406 L 85.945312 157.894531 L 85.894531 157.90625 L 84.800781 158.183594 C 84.785156 158.1875 84.769531 158.183594 84.753906 158.175781 C 84.742188 158.167969 84.730469 158.15625 84.722656 158.140625 L 84.722656 158.136719 L 84.640625 157.929688 L 84.257812 156.988281 L 84.171875 156.773438 C 84.167969 156.757812 84.167969 156.742188 84.171875 156.730469 C 84.175781 156.714844 84.1875 156.703125 84.199219 156.695312 L 84.269531 156.65625 L 85.167969 156.144531 L 85.214844 156.117188 L 85.203125 156.066406 C 85.179688 155.984375 85.160156 155.898438 85.140625 155.808594 C 85.117188 155.71875 85.101562 155.632812 85.082031 155.546875 C 85.066406 155.460938 85.050781 155.371094 85.039062 155.285156 C 85.023438 155.199219 85.011719 155.109375 85 155.023438 L 84.992188 154.96875 L 84.941406 154.960938 L 83.835938 154.808594 C 83.816406 154.804688 83.804688 154.796875 83.792969 154.785156 C 83.785156 154.773438 83.777344 154.757812 83.777344 154.742188 L 83.777344 154.515625 L 83.78125 153.597656 L 83.78125 153.269531 C 83.78125 153.25 83.789062 153.234375 83.796875 153.226562 C 83.808594 153.214844 83.820312 153.207031 83.835938 153.203125 L 83.878906 153.199219 L 84.949219 153.054688 L 85.003906 153.050781 L 85.011719 152.996094 C 85.023438 152.910156 85.035156 152.824219 85.050781 152.734375 C 85.066406 152.644531 85.082031 152.558594 85.101562 152.46875 C 85.117188 152.386719 85.136719 152.300781 85.160156 152.210938 C 85.179688 152.121094 85.203125 152.039062 85.226562 151.953125 L 85.242188 151.902344 L 85.195312 151.875 L 84.234375 151.320312 C 84.21875 151.3125 84.210938 151.300781 84.203125 151.285156 C 84.199219 151.273438 84.199219 151.257812 84.207031 151.242188 L 84.234375 151.171875 L 84.292969 151.027344 L 84.292969 151.023438 L 84.296875 151.019531 L 84.679688 150.085938 L 84.765625 149.875 C 84.773438 149.859375 84.785156 149.847656 84.796875 149.839844 C 84.8125 149.835938 84.828125 149.832031 84.84375 149.839844 L 84.847656 149.839844 L 85.9375 150.121094 L 85.992188 150.136719 L 86.019531 150.089844 C 86.050781 150.035156 86.085938 149.976562 86.121094 149.917969 C 86.160156 149.855469 86.195312 149.800781 86.234375 149.746094 C 86.273438 149.6875 86.308594 149.628906 86.347656 149.574219 C 86.382812 149.523438 86.421875 149.46875 86.464844 149.410156 L 86.496094 149.367188 L 86.464844 149.328125 L 85.773438 148.410156 C 85.765625 148.398438 85.761719 148.382812 85.761719 148.367188 C 85.761719 148.351562 85.769531 148.339844 85.78125 148.328125 L 85.941406 148.167969 L 86.667969 147.449219 L 86.832031 147.289062 C 86.84375 147.277344 86.855469 147.273438 86.871094 147.269531 C 86.886719 147.269531 86.902344 147.273438 86.914062 147.285156 L 86.917969 147.285156 L 87.785156 147.949219 L 87.828125 147.984375 L 87.871094 147.949219 C 87.941406 147.890625 88.011719 147.835938 88.082031 147.785156 Z M 107.085938 143.402344 C 107.15625 143.328125 107.230469 143.253906 107.304688 143.183594 C 107.375 143.113281 107.453125 143.039062 107.527344 142.972656 C 107.601562 142.902344 107.679688 142.835938 107.761719 142.765625 L 107.808594 142.726562 L 107.78125 142.667969 L 107.210938 141.527344 L 107.210938 141.523438 C 107.203125 141.507812 107.203125 141.488281 107.207031 141.472656 C 107.210938 141.457031 107.222656 141.441406 107.234375 141.429688 L 107.308594 141.382812 L 107.457031 141.28125 L 108.4375 140.617188 L 108.65625 140.46875 C 108.671875 140.460938 108.691406 140.457031 108.710938 140.457031 C 108.726562 140.460938 108.742188 140.46875 108.757812 140.484375 L 109.640625 141.46875 L 109.683594 141.511719 L 109.738281 141.488281 C 109.832031 141.441406 109.925781 141.398438 110.019531 141.359375 C 110.109375 141.320312 110.203125 141.28125 110.300781 141.242188 C 110.398438 141.203125 110.496094 141.167969 110.589844 141.132812 C 110.683594 141.097656 110.777344 141.066406 110.882812 141.035156 L 110.941406 141.015625 L 110.9375 140.953125 L 110.902344 139.632812 C 110.902344 139.613281 110.910156 139.59375 110.921875 139.582031 C 110.933594 139.566406 110.949219 139.558594 110.96875 139.554688 L 111.226562 139.511719 L 112.398438 139.324219 L 112.660156 139.28125 C 112.679688 139.277344 112.695312 139.28125 112.710938 139.289062 C 112.726562 139.300781 112.738281 139.3125 112.742188 139.332031 L 112.765625 139.402344 L 113.117188 140.550781 L 113.136719 140.613281 L 113.203125 140.609375 C 113.300781 140.601562 113.40625 140.597656 113.507812 140.597656 C 113.613281 140.59375 113.714844 140.59375 113.816406 140.597656 C 113.917969 140.597656 114.023438 140.601562 114.125 140.605469 C 114.230469 140.609375 114.335938 140.617188 114.4375 140.625 L 114.5 140.632812 L 114.523438 140.574219 L 114.984375 139.34375 C 114.988281 139.328125 115.003906 139.316406 115.019531 139.304688 C 115.035156 139.296875 115.050781 139.296875 115.070312 139.300781 L 115.148438 139.316406 L 115.328125 139.359375 L 115.339844 139.359375 L 116.484375 139.621094 L 116.746094 139.679688 C 116.765625 139.683594 116.78125 139.695312 116.789062 139.710938 C 116.800781 139.726562 116.804688 139.746094 116.800781 139.765625 L 116.800781 139.769531 L 116.6875 141.039062 L 116.683594 141.101562 L 116.742188 141.121094 C 116.84375 141.15625 116.9375 141.195312 117.03125 141.230469 C 117.128906 141.269531 117.222656 141.308594 117.316406 141.347656 C 117.40625 141.386719 117.5 141.429688 117.597656 141.476562 C 117.695312 141.523438 117.789062 141.570312 117.875 141.613281 L 117.933594 141.644531 L 117.972656 141.597656 L 118.882812 140.644531 C 118.898438 140.628906 118.914062 140.621094 118.929688 140.621094 C 118.949219 140.621094 118.96875 140.625 118.980469 140.636719 L 119.039062 140.675781 L 119.199219 140.789062 L 120.160156 141.480469 L 120.375 141.636719 C 120.390625 141.648438 120.402344 141.664062 120.40625 141.679688 L 120.40625 141.683594 C 120.410156 141.699219 120.40625 141.71875 120.398438 141.734375 L 119.796875 142.855469 L 119.765625 142.914062 L 119.816406 142.957031 C 119.890625 143.027344 119.964844 143.09375 120.039062 143.164062 C 120.113281 143.238281 120.183594 143.308594 120.257812 143.382812 C 120.328125 143.457031 120.398438 143.535156 120.46875 143.609375 C 120.535156 143.683594 120.605469 143.761719 120.671875 143.84375 L 120.710938 143.890625 L 120.769531 143.867188 L 121.984375 143.335938 C 122.003906 143.328125 122.023438 143.328125 122.039062 143.335938 C 122.058594 143.339844 122.070312 143.351562 122.082031 143.371094 L 122.21875 143.59375 L 122.835938 144.601562 L 122.972656 144.828125 C 122.984375 144.84375 122.988281 144.863281 122.984375 144.878906 C 122.980469 144.898438 122.972656 144.914062 122.957031 144.925781 L 122.894531 144.976562 C 122.75 145.09375 122.632812 145.183594 122.53125 145.265625 L 122.527344 145.265625 C 122.359375 145.402344 122.234375 145.496094 122.148438 145.574219 C 122.054688 145.660156 122.003906 145.722656 121.984375 145.789062 L 121.984375 145.800781 C 121.972656 145.847656 121.984375 145.902344 122.007812 145.972656 C 122.027344 146.03125 122.058594 146.109375 122.101562 146.203125 C 122.140625 146.292969 122.183594 146.398438 122.234375 146.527344 C 122.285156 146.652344 122.335938 146.800781 122.390625 146.976562 L 122.410156 147.035156 L 122.472656 147.03125 L 123.789062 147 C 123.808594 146.996094 123.824219 147.003906 123.839844 147.015625 C 123.851562 147.027344 123.863281 147.042969 123.863281 147.0625 L 123.863281 147.066406 L 123.90625 147.324219 L 124.097656 148.488281 L 124.144531 148.75 C 124.144531 148.769531 124.140625 148.785156 124.132812 148.800781 C 124.125 148.816406 124.109375 148.828125 124.089844 148.832031 L 124.019531 148.855469 L 122.863281 149.210938 L 122.800781 149.226562 L 122.804688 149.289062 C 122.808594 149.390625 122.8125 149.496094 122.8125 149.597656 C 122.8125 149.703125 122.8125 149.804688 122.8125 149.90625 C 122.808594 150.007812 122.804688 150.113281 122.800781 150.21875 C 122.792969 150.324219 122.785156 150.425781 122.777344 150.523438 L 122.773438 150.585938 L 122.832031 150.609375 L 124.050781 151.066406 C 124.070312 151.070312 124.082031 151.085938 124.089844 151.101562 C 124.097656 151.117188 124.101562 151.136719 124.097656 151.152344 L 124.09375 151.171875 L 124.082031 151.226562 L 124.039062 151.410156 L 123.777344 152.5625 L 123.71875 152.820312 C 123.714844 152.839844 123.703125 152.855469 123.6875 152.867188 C 123.671875 152.878906 123.652344 152.882812 123.632812 152.878906 L 123.628906 152.878906 L 122.347656 152.765625 L 122.285156 152.757812 L 122.265625 152.816406 C 122.230469 152.910156 122.191406 153.007812 122.152344 153.105469 C 122.113281 153.199219 122.074219 153.292969 122.03125 153.386719 C 121.992188 153.480469 121.945312 153.574219 121.902344 153.667969 C 121.855469 153.757812 121.8125 153.851562 121.761719 153.941406 L 121.734375 154 L 121.777344 154.042969 L 122.730469 154.941406 C 122.742188 154.953125 122.75 154.972656 122.75 154.988281 C 122.753906 155.007812 122.75 155.023438 122.738281 155.039062 L 122.695312 155.097656 L 122.582031 155.253906 L 121.890625 156.210938 L 121.734375 156.425781 C 121.722656 156.441406 121.707031 156.453125 121.691406 156.457031 C 121.671875 156.460938 121.652344 156.457031 121.636719 156.449219 L 120.5 155.847656 L 120.445312 155.816406 L 120.402344 155.863281 C 120.332031 155.9375 120.261719 156.011719 120.191406 156.085938 C 120.117188 156.15625 120.042969 156.230469 119.96875 156.300781 C 119.894531 156.371094 119.820312 156.441406 119.742188 156.511719 C 119.664062 156.578125 119.582031 156.648438 119.507812 156.710938 L 119.457031 156.75 L 119.484375 156.808594 L 120.011719 158.011719 C 120.019531 158.027344 120.019531 158.046875 120.015625 158.0625 C 120.007812 158.082031 119.996094 158.097656 119.980469 158.105469 L 119.976562 158.109375 L 119.753906 158.242188 L 118.742188 158.855469 L 118.515625 158.996094 L 118.515625 158.992188 C 118.5 159.003906 118.480469 159.007812 118.464844 159.003906 C 118.445312 159 118.429688 158.992188 118.417969 158.976562 L 118.359375 158.90625 L 117.609375 157.980469 L 117.566406 157.933594 L 117.507812 157.960938 C 117.417969 158.003906 117.320312 158.042969 117.226562 158.082031 C 117.128906 158.125 117.035156 158.160156 116.941406 158.195312 C 116.847656 158.230469 116.75 158.265625 116.648438 158.300781 C 116.550781 158.335938 116.449219 158.367188 116.355469 158.398438 L 116.292969 158.414062 L 116.296875 158.476562 L 116.332031 159.777344 C 116.332031 159.796875 116.324219 159.8125 116.3125 159.828125 C 116.300781 159.84375 116.285156 159.851562 116.265625 159.855469 L 116.007812 159.898438 L 114.835938 160.085938 L 114.574219 160.128906 C 114.554688 160.132812 114.539062 160.128906 114.523438 160.121094 C 114.507812 160.109375 114.496094 160.09375 114.492188 160.078125 L 114.472656 160.019531 L 114.109375 158.84375 L 114.09375 158.78125 L 114.027344 158.785156 C 113.921875 158.789062 113.820312 158.792969 113.71875 158.792969 C 113.609375 158.792969 113.507812 158.789062 113.410156 158.789062 C 113.308594 158.785156 113.207031 158.78125 113.101562 158.773438 C 112.996094 158.765625 112.894531 158.757812 112.792969 158.746094 L 112.730469 158.742188 L 112.707031 158.800781 L 112.253906 160.007812 C 112.246094 160.027344 112.234375 160.039062 112.21875 160.046875 C 112.203125 160.058594 112.183594 160.058594 112.167969 160.054688 L 112.164062 160.054688 L 112.148438 160.050781 L 112.109375 160.042969 L 111.90625 159.996094 L 110.75 159.734375 L 110.492188 159.675781 C 110.472656 159.671875 110.457031 159.660156 110.445312 159.644531 C 110.4375 159.628906 110.429688 159.609375 110.433594 159.589844 L 110.433594 159.585938 L 110.546875 158.300781 L 110.554688 158.238281 L 110.496094 158.214844 C 110.402344 158.179688 110.304688 158.140625 110.207031 158.101562 C 110.113281 158.0625 110.015625 158.019531 109.921875 157.980469 C 109.832031 157.9375 109.738281 157.894531 109.644531 157.847656 C 109.554688 157.800781 109.460938 157.753906 109.371094 157.703125 L 109.3125 157.675781 L 109.269531 157.71875 L 108.375 158.660156 C 108.363281 158.671875 108.34375 158.679688 108.328125 158.683594 C 108.308594 158.683594 108.292969 158.679688 108.277344 158.667969 L 108.21875 158.628906 L 108.0625 158.511719 L 107.101562 157.820312 L 106.882812 157.667969 C 106.867188 157.65625 106.859375 157.640625 106.855469 157.621094 C 106.851562 157.605469 106.851562 157.585938 106.863281 157.570312 L 106.863281 157.566406 L 107.46875 156.429688 L 107.5 156.375 L 107.453125 156.332031 C 107.378906 156.261719 107.304688 156.191406 107.234375 156.121094 C 107.160156 156.046875 107.089844 155.972656 107.015625 155.898438 L 107 155.878906 L 106.964844 155.84375 C 106.90625 155.777344 106.84375 155.710938 106.785156 155.640625 C 106.722656 155.570312 106.664062 155.5 106.609375 155.429688 L 106.570312 155.382812 L 106.511719 155.40625 L 105.3125 155.929688 C 105.296875 155.9375 105.277344 155.9375 105.261719 155.929688 C 105.242188 155.925781 105.226562 155.914062 105.21875 155.894531 L 105.082031 155.671875 L 104.464844 154.664062 L 104.324219 154.4375 L 104.328125 154.4375 C 104.316406 154.417969 104.3125 154.402344 104.316406 154.386719 C 104.320312 154.367188 104.328125 154.351562 104.34375 154.339844 L 104.414062 154.28125 L 105.347656 153.527344 L 105.394531 153.488281 L 105.371094 153.429688 C 105.328125 153.339844 105.289062 153.246094 105.246094 153.148438 C 105.207031 153.046875 105.167969 152.953125 105.136719 152.859375 C 105.097656 152.761719 105.066406 152.664062 105.03125 152.566406 C 105 152.472656 104.96875 152.371094 104.941406 152.273438 L 104.921875 152.214844 L 104.859375 152.214844 L 103.5625 152.25 C 103.542969 152.25 103.527344 152.242188 103.511719 152.230469 C 103.5 152.21875 103.488281 152.203125 103.488281 152.183594 L 103.484375 152.183594 L 103.445312 151.925781 L 103.269531 150.871094 L 103.25 150.757812 L 103.207031 150.496094 C 103.207031 150.476562 103.210938 150.460938 103.21875 150.445312 C 103.226562 150.429688 103.242188 150.417969 103.261719 150.414062 L 103.308594 150.398438 L 104.507812 150.03125 L 104.566406 150.015625 L 104.566406 149.953125 C 104.5625 149.851562 104.5625 149.75 104.5625 149.640625 C 104.5625 149.539062 104.5625 149.4375 104.566406 149.332031 C 104.570312 149.234375 104.578125 149.132812 104.585938 149.027344 C 104.59375 148.921875 104.601562 148.816406 104.613281 148.71875 L 104.617188 148.65625 L 104.558594 148.632812 L 103.355469 148.183594 C 103.335938 148.175781 103.324219 148.164062 103.3125 148.148438 C 103.304688 148.132812 103.304688 148.113281 103.308594 148.097656 L 103.328125 148.011719 L 103.324219 148.011719 L 103.367188 147.835938 L 103.367188 147.828125 L 103.628906 146.6875 L 103.6875 146.425781 C 103.691406 146.40625 103.703125 146.390625 103.71875 146.382812 C 103.734375 146.371094 103.753906 146.367188 103.769531 146.371094 L 103.777344 146.371094 L 105.078125 146.484375 L 105.140625 146.492188 L 105.160156 146.433594 C 105.1875 146.363281 105.21875 146.292969 105.25 146.214844 C 105.28125 146.140625 105.3125 146.066406 105.34375 146 C 105.375 145.925781 105.410156 145.851562 105.441406 145.785156 C 105.472656 145.71875 105.507812 145.648438 105.546875 145.570312 L 105.574219 145.519531 L 105.53125 145.476562 L 104.5625 144.558594 C 104.550781 144.546875 104.542969 144.53125 104.539062 144.511719 C 104.539062 144.496094 104.542969 144.476562 104.554688 144.460938 L 104.59375 144.40625 L 104.710938 144.246094 L 105.402344 143.289062 L 105.558594 143.074219 C 105.566406 143.058594 105.585938 143.046875 105.601562 143.042969 C 105.621094 143.039062 105.636719 143.042969 105.65625 143.050781 L 105.65625 143.054688 L 106.777344 143.648438 L 106.832031 143.679688 L 106.875 143.628906 C 106.945312 143.550781 107.015625 143.476562 107.085938 143.402344 Z M 102.582031 136.8125 C 99.292969 133.523438 93.160156 133.5625 89.949219 136.945312 C 86.753906 136.714844 83.207031 138.105469 81.730469 141.082031 C 75.816406 140.632812 70.753906 145.28125 70.753906 151.210938 C 70.753906 151.289062 70.753906 151.367188 70.757812 151.445312 C 68.105469 153.277344 66.367188 156.335938 66.367188 159.796875 C 66.367188 161.195312 66.652344 162.53125 67.164062 163.742188 C 65.707031 166.078125 66.417969 169.175781 68.761719 170.652344 C 68.566406 179.25 76.890625 182.996094 83.207031 180.816406 C 83.921875 182.253906 85.058594 183.445312 86.457031 184.226562 C 84 191.871094 99.589844 192.699219 107.085938 190.796875 C 107.675781 193.976562 109.535156 196.6875 112.09375 198.324219 C 114.738281 212.039062 118.613281 207.667969 118.613281 226.625 L 124.195312 226.625 C 124.195312 217.023438 122.203125 214.050781 127.289062 206.804688 C 127.957031 205.851562 128.800781 204.097656 131.199219 204.097656 C 137.21875 204.097656 142.097656 200.457031 142.097656 195.96875 C 142.097656 195.769531 142.089844 195.574219 142.078125 195.378906 C 146.285156 196.09375 151.132812 194.5 152.230469 190.6875 C 156.242188 189.546875 157.960938 184.859375 155.738281 181.414062 C 158.617188 177.378906 158.570312 169.984375 155.355469 166.152344 C 155.886719 163.046875 154.410156 160.863281 152.320312 159.789062 C 153.550781 155.984375 151.550781 151.128906 146.464844 150.699219 C 146.023438 146.828125 142.832031 142.6875 137.941406 140.234375 C 135.214844 138.867188 132.382812 138.234375 129.824219 138.28125 C 127.480469 134.90625 122.695312 134.339844 119.628906 137.054688 C 119.390625 137.023438 119.15625 137.007812 118.921875 137 C 118.65625 136.707031 118.339844 136.441406 117.980469 136.199219 C 114.207031 133.636719 105.835938 133.832031 102.582031 136.8125 " fill-opacity="1" fill-rule="evenodd"/></g><path stroke-linecap="butt" transform="matrix(0.000000000000000183, -2.986452, 3.368421, 0.000000000000000206, 167.935321, 213.568712)" fill="none" stroke-linejoin="miter" d="M -0.000536062 -0.00051268 L 23.356243 -0.00051268 " stroke="#00c2cb" stroke-width="1" stroke-opacity="1" stroke-miterlimit="4"/><g fill="#301b52" fill-opacity="1"><g transform="translate(180.732943, 170.056777)"><g><path d="M 1.859375 -18.640625 L 9.984375 -18.640625 C 12.359375 -18.640625 14.203125 -18.070312 15.515625 -16.9375 C 16.835938 -15.8125 17.5 -14.210938 17.5 -12.140625 C 17.5 -9.953125 16.835938 -8.253906 15.515625 -7.046875 C 14.203125 -5.847656 12.359375 -5.25 9.984375 -5.25 L 6.609375 -5.25 L 6.609375 0 L 1.859375 0 Z M 6.609375 -14.90625 L 6.609375 -8.96875 L 9.75 -8.96875 C 10.789062 -8.96875 11.59375 -9.222656 12.15625 -9.734375 C 12.726562 -10.253906 13.015625 -11.003906 13.015625 -11.984375 C 13.015625 -12.941406 12.726562 -13.664062 12.15625 -14.15625 C 11.59375 -14.65625 10.789062 -14.90625 9.75 -14.90625 Z M 6.609375 -14.90625 "/></g></g></g><g fill="#301b52" fill-opacity="1"><g transform="translate(198.837964, 170.056777)"><g><path d="M 9.03125 -18.84375 C 11.8125 -18.84375 14.257812 -18.15625 16.375 -16.78125 L 14.59375 -13.078125 C 13.613281 -13.640625 12.5625 -14.101562 11.4375 -14.46875 C 10.320312 -14.832031 9.382812 -15.015625 8.625 -15.015625 C 7.257812 -15.015625 6.578125 -14.5625 6.578125 -13.65625 C 6.578125 -13.070312 6.910156 -12.601562 7.578125 -12.25 C 8.253906 -11.894531 9.078125 -11.585938 10.046875 -11.328125 C 11.015625 -11.066406 11.984375 -10.753906 12.953125 -10.390625 C 13.921875 -10.023438 14.738281 -9.4375 15.40625 -8.625 C 16.082031 -7.8125 16.421875 -6.78125 16.421875 -5.53125 C 16.421875 -3.738281 15.71875 -2.34375 14.3125 -1.34375 C 12.914062 -0.34375 11.132812 0.15625 8.96875 0.15625 C 7.425781 0.15625 5.898438 -0.109375 4.390625 -0.640625 C 2.878906 -1.171875 1.566406 -1.898438 0.453125 -2.828125 L 2.296875 -6.46875 C 3.234375 -5.65625 4.335938 -4.984375 5.609375 -4.453125 C 6.890625 -3.929688 8.03125 -3.671875 9.03125 -3.671875 C 9.789062 -3.671875 10.382812 -3.804688 10.8125 -4.078125 C 11.238281 -4.359375 11.453125 -4.765625 11.453125 -5.296875 C 11.453125 -5.816406 11.207031 -6.25 10.71875 -6.59375 C 10.226562 -6.9375 9.617188 -7.191406 8.890625 -7.359375 C 8.160156 -7.523438 7.367188 -7.75 6.515625 -8.03125 C 5.671875 -8.320312 4.882812 -8.632812 4.15625 -8.96875 C 3.425781 -9.3125 2.816406 -9.847656 2.328125 -10.578125 C 1.835938 -11.316406 1.59375 -12.203125 1.59375 -13.234375 C 1.59375 -14.929688 2.269531 -16.289062 3.625 -17.3125 C 4.988281 -18.332031 6.789062 -18.84375 9.03125 -18.84375 Z M 9.03125 -18.84375 "/></g></g></g><g fill="#301b52" fill-opacity="1"><g transform="translate(215.984486, 170.056777)"><g><path d="M 11.46875 -6.015625 L 11.46875 0 L 6.765625 0 L 6.765625 -5.890625 L -0.140625 -18.640625 L 4.609375 -18.640625 L 9.109375 -10.515625 L 13.5 -18.640625 L 18.234375 -18.640625 Z M 11.46875 -6.015625 "/></g></g></g><g fill="#301b52" fill-opacity="1"><g transform="translate(234.089507, 170.056777)"><g><path d="M 10.59375 -18.796875 C 11.976562 -18.796875 13.335938 -18.507812 14.671875 -17.9375 C 16.015625 -17.375 17.160156 -16.613281 18.109375 -15.65625 L 15.359375 -12.40625 C 14.753906 -13.15625 14.03125 -13.742188 13.1875 -14.171875 C 12.34375 -14.609375 11.503906 -14.828125 10.671875 -14.828125 C 9.203125 -14.828125 7.96875 -14.304688 6.96875 -13.265625 C 5.976562 -12.234375 5.484375 -10.953125 5.484375 -9.421875 C 5.484375 -7.859375 5.976562 -6.550781 6.96875 -5.5 C 7.96875 -4.457031 9.203125 -3.9375 10.671875 -3.9375 C 11.453125 -3.9375 12.265625 -4.128906 13.109375 -4.515625 C 13.953125 -4.910156 14.703125 -5.445312 15.359375 -6.125 L 18.125 -3.1875 C 17.113281 -2.164062 15.921875 -1.34375 14.546875 -0.71875 C 13.171875 -0.09375 11.800781 0.21875 10.4375 0.21875 C 7.632812 0.21875 5.300781 -0.691406 3.4375 -2.515625 C 1.570312 -4.347656 0.640625 -6.632812 0.640625 -9.375 C 0.640625 -12.050781 1.585938 -14.289062 3.484375 -16.09375 C 5.390625 -17.894531 7.757812 -18.796875 10.59375 -18.796875 Z M 10.59375 -18.796875 "/></g></g></g><g fill="#301b52" fill-opacity="1"><g transform="translate(252.514036, 170.056777)"><g><path d="M 19.0625 0 L 14.328125 0 L 14.328125 -7.234375 L 6.609375 -7.234375 L 6.609375 0 L 1.859375 0 L 1.859375 -18.640625 L 6.609375 -18.640625 L 6.609375 -10.96875 L 14.328125 -10.96875 L 14.328125 -18.640625 L 19.0625 -18.640625 Z M 19.0625 0 "/></g></g></g><g fill="#301b52" fill-opacity="1"><g transform="translate(273.441319, 170.056777)"><g><path d="M 1.859375 -18.640625 L 9.875 -18.640625 C 12.800781 -18.640625 15.179688 -17.773438 17.015625 -16.046875 C 18.859375 -14.328125 19.78125 -12.082031 19.78125 -9.3125 C 19.78125 -6.5625 18.847656 -4.320312 16.984375 -2.59375 C 15.117188 -0.863281 12.6875 0 9.6875 0 L 1.859375 0 Z M 6.609375 -14.859375 L 6.609375 -3.78125 L 9.984375 -3.78125 C 11.441406 -3.78125 12.632812 -4.289062 13.5625 -5.3125 C 14.5 -6.332031 14.96875 -7.65625 14.96875 -9.28125 C 14.96875 -10.914062 14.476562 -12.253906 13.5 -13.296875 C 12.519531 -14.335938 11.273438 -14.859375 9.765625 -14.859375 Z M 6.609375 -14.859375 "/></g></g></g><g fill="#301b52" fill-opacity="1"><g transform="translate(293.862716, 170.056777)"><g><path d="M 10.703125 -18.796875 C 13.597656 -18.796875 16.003906 -17.894531 17.921875 -16.09375 C 19.835938 -14.289062 20.796875 -12.039062 20.796875 -9.34375 C 20.796875 -6.625 19.832031 -4.347656 17.90625 -2.515625 C 15.976562 -0.691406 13.578125 0.21875 10.703125 0.21875 C 7.828125 0.21875 5.429688 -0.691406 3.515625 -2.515625 C 1.597656 -4.335938 0.640625 -6.613281 0.640625 -9.34375 C 0.640625 -12.0625 1.597656 -14.316406 3.515625 -16.109375 C 5.429688 -17.898438 7.828125 -18.796875 10.703125 -18.796875 Z M 10.75 -14.828125 C 9.300781 -14.828125 8.0625 -14.296875 7.03125 -13.234375 C 6 -12.179688 5.484375 -10.875 5.484375 -9.3125 C 5.484375 -7.75 6 -6.429688 7.03125 -5.359375 C 8.070312 -4.285156 9.3125 -3.75 10.75 -3.75 C 12.1875 -3.75 13.40625 -4.285156 14.40625 -5.359375 C 15.414062 -6.429688 15.921875 -7.75 15.921875 -9.3125 C 15.921875 -10.875 15.414062 -12.179688 14.40625 -13.234375 C 13.40625 -14.296875 12.1875 -14.828125 10.75 -14.828125 Z M 10.75 -14.828125 "/></g></g></g><g fill="#301b52" fill-opacity="1"><g transform="translate(315.295873, 170.056777)"><g><path d="M 10.59375 -18.796875 C 11.976562 -18.796875 13.335938 -18.507812 14.671875 -17.9375 C 16.015625 -17.375 17.160156 -16.613281 18.109375 -15.65625 L 15.359375 -12.40625 C 14.753906 -13.15625 14.03125 -13.742188 13.1875 -14.171875 C 12.34375 -14.609375 11.503906 -14.828125 10.671875 -14.828125 C 9.203125 -14.828125 7.96875 -14.304688 6.96875 -13.265625 C 5.976562 -12.234375 5.484375 -10.953125 5.484375 -9.421875 C 5.484375 -7.859375 5.976562 -6.550781 6.96875 -5.5 C 7.96875 -4.457031 9.203125 -3.9375 10.671875 -3.9375 C 11.453125 -3.9375 12.265625 -4.128906 13.109375 -4.515625 C 13.953125 -4.910156 14.703125 -5.445312 15.359375 -6.125 L 18.125 -3.1875 C 17.113281 -2.164062 15.921875 -1.34375 14.546875 -0.71875 C 13.171875 -0.09375 11.800781 0.21875 10.4375 0.21875 C 7.632812 0.21875 5.300781 -0.691406 3.4375 -2.515625 C 1.570312 -4.347656 0.640625 -6.632812 0.640625 -9.375 C 0.640625 -12.050781 1.585938 -14.289062 3.484375 -16.09375 C 5.390625 -17.894531 7.757812 -18.796875 10.59375 -18.796875 Z M 10.59375 -18.796875 "/></g></g></g><g fill="#301b52" fill-opacity="1"><g transform="translate(180.732943, 193.008868)"><g><path d="M 5.296875 -2.78125 L 5.296875 0 L 3.125 0 L 3.125 -2.71875 L -0.0625 -8.609375 L 2.125 -8.609375 L 4.203125 -4.859375 L 6.234375 -8.609375 L 8.421875 -8.609375 Z M 5.296875 -2.78125 "/></g></g></g><g fill="#301b52" fill-opacity="1"><g transform="translate(189.092131, 193.008868)"><g><path d="M 3.921875 -6.703125 C 5.003906 -6.703125 5.875 -6.390625 6.53125 -5.765625 C 7.195312 -5.148438 7.53125 -4.332031 7.53125 -3.3125 C 7.53125 -2.300781 7.195312 -1.484375 6.53125 -0.859375 C 5.875 -0.234375 5.003906 0.078125 3.921875 0.078125 C 2.828125 0.078125 1.945312 -0.234375 1.28125 -0.859375 C 0.625 -1.484375 0.296875 -2.300781 0.296875 -3.3125 C 0.296875 -4.332031 0.625 -5.148438 1.28125 -5.765625 C 1.945312 -6.390625 2.828125 -6.703125 3.921875 -6.703125 Z M 3.921875 -5.015625 C 3.484375 -5.015625 3.125 -4.851562 2.84375 -4.53125 C 2.570312 -4.21875 2.4375 -3.804688 2.4375 -3.296875 C 2.4375 -2.773438 2.570312 -2.359375 2.84375 -2.046875 C 3.125 -1.734375 3.484375 -1.578125 3.921875 -1.578125 C 4.359375 -1.578125 4.710938 -1.734375 4.984375 -2.046875 C 5.253906 -2.359375 5.390625 -2.773438 5.390625 -3.296875 C 5.390625 -3.804688 5.253906 -4.21875 4.984375 -4.53125 C 4.710938 -4.851562 4.359375 -5.015625 3.921875 -5.015625 Z M 3.921875 -5.015625 "/></g></g></g><g fill="#301b52" fill-opacity="1"><g transform="translate(196.922715, 193.008868)"><g><path d="M 7.296875 -6.625 L 7.296875 0 L 5.171875 0 L 5.171875 -1.09375 C 4.722656 -0.300781 4.007812 0.09375 3.03125 0.09375 C 2.300781 0.09375 1.722656 -0.132812 1.296875 -0.59375 C 0.867188 -1.0625 0.65625 -1.679688 0.65625 -2.453125 L 0.65625 -6.625 L 2.78125 -6.625 L 2.78125 -3.046875 C 2.78125 -2.648438 2.878906 -2.335938 3.078125 -2.109375 C 3.273438 -1.890625 3.546875 -1.78125 3.890625 -1.78125 C 4.285156 -1.789062 4.597656 -1.941406 4.828125 -2.234375 C 5.054688 -2.523438 5.171875 -2.898438 5.171875 -3.359375 L 5.171875 -6.625 Z M 7.296875 -6.625 "/></g></g></g><g fill="#301b52" fill-opacity="1"><g transform="translate(205.072923, 193.008868)"><g><path d="M 2.96875 -6.625 L 2.96875 -5.515625 C 3.4375 -6.304688 4.15625 -6.707031 5.125 -6.71875 L 5.125 -4.8125 C 4.519531 -4.863281 4.023438 -4.757812 3.640625 -4.5 C 3.253906 -4.25 3.03125 -3.882812 2.96875 -3.40625 L 2.96875 0 L 0.84375 0 L 0.84375 -6.625 Z M 2.96875 -6.625 "/></g></g></g><g fill="#301b52" fill-opacity="1"><g transform="translate(210.321995, 193.008868)"><g/></g></g><g fill="#301b52" fill-opacity="1"><g transform="translate(213.173954, 193.008868)"><g><path d="M 9.703125 -6.71875 C 10.429688 -6.71875 11.007812 -6.488281 11.4375 -6.03125 C 11.875 -5.570312 12.09375 -4.957031 12.09375 -4.1875 L 12.09375 0 L 9.96875 0 L 9.96875 -3.59375 C 9.96875 -3.988281 9.863281 -4.296875 9.65625 -4.515625 C 9.457031 -4.742188 9.179688 -4.859375 8.828125 -4.859375 C 8.429688 -4.847656 8.113281 -4.695312 7.875 -4.40625 C 7.644531 -4.113281 7.53125 -3.738281 7.53125 -3.28125 L 7.53125 0 L 5.40625 0 L 5.40625 -3.59375 C 5.40625 -3.988281 5.304688 -4.296875 5.109375 -4.515625 C 4.910156 -4.742188 4.632812 -4.859375 4.28125 -4.859375 C 3.875 -4.847656 3.550781 -4.691406 3.3125 -4.390625 C 3.082031 -4.097656 2.96875 -3.726562 2.96875 -3.28125 L 2.96875 0 L 0.84375 0 L 0.84375 -6.625 L 2.96875 -6.625 L 2.96875 -5.53125 C 3.414062 -6.3125 4.144531 -6.707031 5.15625 -6.71875 C 5.6875 -6.71875 6.144531 -6.582031 6.53125 -6.3125 C 6.925781 -6.050781 7.203125 -5.6875 7.359375 -5.21875 C 7.796875 -6.207031 8.578125 -6.707031 9.703125 -6.71875 Z M 9.703125 -6.71875 "/></g></g></g><g fill="#301b52" fill-opacity="1"><g transform="translate(225.92171, 193.008868)"><g><path d="M 1.109375 -9.34375 C 1.316406 -9.550781 1.582031 -9.65625 1.90625 -9.65625 C 2.238281 -9.65625 2.507812 -9.550781 2.71875 -9.34375 C 2.925781 -9.132812 3.03125 -8.863281 3.03125 -8.53125 C 3.03125 -8.207031 2.925781 -7.9375 2.71875 -7.71875 C 2.507812 -7.507812 2.238281 -7.40625 1.90625 -7.40625 C 1.582031 -7.40625 1.316406 -7.507812 1.109375 -7.71875 C 0.898438 -7.9375 0.796875 -8.207031 0.796875 -8.53125 C 0.796875 -8.863281 0.898438 -9.132812 1.109375 -9.34375 Z M 2.96875 0 L 0.84375 0 L 0.84375 -6.625 L 2.96875 -6.625 Z M 2.96875 0 "/></g></g></g><g fill="#301b52" fill-opacity="1"><g transform="translate(229.744803, 193.008868)"><g><path d="M 5.1875 -6.71875 C 5.914062 -6.71875 6.5 -6.488281 6.9375 -6.03125 C 7.382812 -5.570312 7.609375 -4.957031 7.609375 -4.1875 L 7.609375 0 L 5.5 0 L 5.5 -3.59375 C 5.5 -3.976562 5.394531 -4.28125 5.1875 -4.5 C 4.976562 -4.726562 4.691406 -4.84375 4.328125 -4.84375 C 3.953125 -4.84375 3.640625 -4.71875 3.390625 -4.46875 C 3.148438 -4.226562 3.007812 -3.90625 2.96875 -3.5 L 2.96875 0 L 0.84375 0 L 0.84375 -6.625 L 2.96875 -6.625 L 2.96875 -5.546875 C 3.4375 -6.316406 4.175781 -6.707031 5.1875 -6.71875 Z M 5.1875 -6.71875 "/></g></g></g><g fill="#301b52" fill-opacity="1"><g transform="translate(238.017943, 193.008868)"><g><path d="M 7.53125 -9.125 L 7.53125 0 L 5.390625 0 L 5.390625 -0.875 C 4.910156 -0.226562 4.25 0.09375 3.40625 0.09375 C 2.46875 0.09375 1.71875 -0.222656 1.15625 -0.859375 C 0.59375 -1.492188 0.3125 -2.320312 0.3125 -3.34375 C 0.3125 -4.363281 0.585938 -5.179688 1.140625 -5.796875 C 1.703125 -6.410156 2.441406 -6.71875 3.359375 -6.71875 C 4.234375 -6.71875 4.910156 -6.394531 5.390625 -5.75 L 5.390625 -9.125 Z M 2.859375 -2.03125 C 3.128906 -1.71875 3.484375 -1.5625 3.921875 -1.5625 C 4.367188 -1.5625 4.722656 -1.71875 4.984375 -2.03125 C 5.253906 -2.351562 5.390625 -2.773438 5.390625 -3.296875 C 5.390625 -3.804688 5.253906 -4.21875 4.984375 -4.53125 C 4.722656 -4.851562 4.367188 -5.015625 3.921875 -5.015625 C 3.484375 -5.015625 3.128906 -4.851562 2.859375 -4.53125 C 2.585938 -4.21875 2.445312 -3.804688 2.4375 -3.296875 C 2.445312 -2.773438 2.585938 -2.351562 2.859375 -2.03125 Z M 2.859375 -2.03125 "/></g></g></g><g fill="#301b52" fill-opacity="1"><g transform="translate(180.732943, 205.758867)"><g><path d="M 9.703125 -6.71875 C 10.429688 -6.71875 11.007812 -6.488281 11.4375 -6.03125 C 11.875 -5.570312 12.09375 -4.957031 12.09375 -4.1875 L 12.09375 0 L 9.96875 0 L 9.96875 -3.59375 C 9.96875 -3.988281 9.863281 -4.296875 9.65625 -4.515625 C 9.457031 -4.742188 9.179688 -4.859375 8.828125 -4.859375 C 8.429688 -4.847656 8.113281 -4.695312 7.875 -4.40625 C 7.644531 -4.113281 7.53125 -3.738281 7.53125 -3.28125 L 7.53125 0 L 5.40625 0 L 5.40625 -3.59375 C 5.40625 -3.988281 5.304688 -4.296875 5.109375 -4.515625 C 4.910156 -4.742188 4.632812 -4.859375 4.28125 -4.859375 C 3.875 -4.847656 3.550781 -4.691406 3.3125 -4.390625 C 3.082031 -4.097656 2.96875 -3.726562 2.96875 -3.28125 L 2.96875 0 L 0.84375 0 L 0.84375 -6.625 L 2.96875 -6.625 L 2.96875 -5.53125 C 3.414062 -6.3125 4.144531 -6.707031 5.15625 -6.71875 C 5.6875 -6.71875 6.144531 -6.582031 6.53125 -6.3125 C 6.925781 -6.050781 7.203125 -5.6875 7.359375 -5.21875 C 7.796875 -6.207031 8.578125 -6.707031 9.703125 -6.71875 Z M 9.703125 -6.71875 "/></g></g></g><g fill="#301b52" fill-opacity="1"><g transform="translate(193.480699, 205.758867)"><g><path d="M 3.828125 -6.71875 C 4.734375 -6.71875 5.4375 -6.503906 5.9375 -6.078125 C 6.445312 -5.660156 6.707031 -5.078125 6.71875 -4.328125 L 6.71875 0 L 4.640625 0 L 4.640625 -0.765625 C 4.203125 -0.191406 3.523438 0.09375 2.609375 0.09375 C 1.910156 0.09375 1.351562 -0.0976562 0.9375 -0.484375 C 0.53125 -0.867188 0.328125 -1.367188 0.328125 -1.984375 C 0.328125 -2.609375 0.546875 -3.09375 0.984375 -3.4375 C 1.421875 -3.789062 2.050781 -3.972656 2.875 -3.984375 L 4.625 -3.984375 L 4.625 -4.078125 C 4.625 -4.410156 4.515625 -4.664062 4.296875 -4.84375 C 4.078125 -5.03125 3.753906 -5.125 3.328125 -5.125 C 2.734375 -5.125 2.078125 -4.941406 1.359375 -4.578125 L 0.75 -5.96875 C 1.820312 -6.46875 2.847656 -6.71875 3.828125 -6.71875 Z M 3.265625 -1.34375 C 3.597656 -1.34375 3.890625 -1.425781 4.140625 -1.59375 C 4.398438 -1.757812 4.5625 -1.976562 4.625 -2.25 L 4.625 -2.84375 L 3.28125 -2.84375 C 2.644531 -2.84375 2.328125 -2.601562 2.328125 -2.125 C 2.328125 -1.882812 2.40625 -1.691406 2.5625 -1.546875 C 2.726562 -1.410156 2.960938 -1.34375 3.265625 -1.34375 Z M 3.265625 -1.34375 "/></g></g></g><g fill="#301b52" fill-opacity="1"><g transform="translate(200.85645, 205.758867)"><g><path d="M 4.703125 -1.828125 L 5.125 -0.359375 C 4.613281 -0.0546875 4.023438 0.09375 3.359375 0.09375 C 2.703125 0.09375 2.171875 -0.0859375 1.765625 -0.453125 C 1.359375 -0.816406 1.15625 -1.332031 1.15625 -2 L 1.15625 -4.9375 L 0.234375 -4.9375 L 0.234375 -6.328125 L 1.15625 -6.328125 L 1.15625 -8.171875 L 3.265625 -8.171875 L 3.265625 -6.328125 L 5 -6.328125 L 5 -4.9375 L 3.265625 -4.9375 L 3.265625 -2.34375 C 3.265625 -2.082031 3.316406 -1.890625 3.421875 -1.765625 C 3.523438 -1.648438 3.679688 -1.597656 3.890625 -1.609375 C 4.085938 -1.609375 4.359375 -1.679688 4.703125 -1.828125 Z M 4.703125 -1.828125 "/></g></g></g><g fill="#301b52" fill-opacity="1"><g transform="translate(206.203873, 205.758867)"><g><path d="M 4.703125 -1.828125 L 5.125 -0.359375 C 4.613281 -0.0546875 4.023438 0.09375 3.359375 0.09375 C 2.703125 0.09375 2.171875 -0.0859375 1.765625 -0.453125 C 1.359375 -0.816406 1.15625 -1.332031 1.15625 -2 L 1.15625 -4.9375 L 0.234375 -4.9375 L 0.234375 -6.328125 L 1.15625 -6.328125 L 1.15625 -8.171875 L 3.265625 -8.171875 L 3.265625 -6.328125 L 5 -6.328125 L 5 -4.9375 L 3.265625 -4.9375 L 3.265625 -2.34375 C 3.265625 -2.082031 3.316406 -1.890625 3.421875 -1.765625 C 3.523438 -1.648438 3.679688 -1.597656 3.890625 -1.609375 C 4.085938 -1.609375 4.359375 -1.679688 4.703125 -1.828125 Z M 4.703125 -1.828125 "/></g></g></g><g fill="#301b52" fill-opacity="1"><g transform="translate(211.551296, 205.758867)"><g><path d="M 3.75 -6.703125 C 4.894531 -6.703125 5.753906 -6.347656 6.328125 -5.640625 C 6.910156 -4.941406 7.164062 -3.976562 7.09375 -2.75 L 2.4375 -2.75 C 2.539062 -2.351562 2.726562 -2.046875 3 -1.828125 C 3.269531 -1.617188 3.601562 -1.515625 4 -1.515625 C 4.601562 -1.515625 5.128906 -1.738281 5.578125 -2.1875 L 6.703125 -1.09375 C 5.984375 -0.3125 5.019531 0.078125 3.8125 0.078125 C 2.738281 0.078125 1.882812 -0.226562 1.25 -0.84375 C 0.613281 -1.457031 0.296875 -2.273438 0.296875 -3.296875 C 0.296875 -4.316406 0.613281 -5.140625 1.25 -5.765625 C 1.882812 -6.390625 2.71875 -6.703125 3.75 -6.703125 Z M 2.390625 -3.890625 L 5.046875 -3.890625 C 5.046875 -4.285156 4.929688 -4.601562 4.703125 -4.84375 C 4.472656 -5.09375 4.164062 -5.21875 3.78125 -5.21875 C 3.414062 -5.21875 3.109375 -5.097656 2.859375 -4.859375 C 2.617188 -4.617188 2.460938 -4.296875 2.390625 -3.890625 Z M 2.390625 -3.890625 "/></g></g></g><g fill="#301b52" fill-opacity="1"><g transform="translate(218.951629, 205.758867)"><g><path d="M 2.96875 -6.625 L 2.96875 -5.515625 C 3.4375 -6.304688 4.15625 -6.707031 5.125 -6.71875 L 5.125 -4.8125 C 4.519531 -4.863281 4.023438 -4.757812 3.640625 -4.5 C 3.253906 -4.25 3.03125 -3.882812 2.96875 -3.40625 L 2.96875 0 L 0.84375 0 L 0.84375 -6.625 Z M 2.96875 -6.625 "/></g></g></g><g fill="#301b52" fill-opacity="1"><g transform="translate(224.200702, 205.758867)"><g><path d="M 3.21875 -6.71875 C 4.195312 -6.71875 5.109375 -6.46875 5.953125 -5.96875 L 5.21875 -4.59375 C 4.40625 -5.039062 3.710938 -5.265625 3.140625 -5.265625 C 2.703125 -5.265625 2.484375 -5.113281 2.484375 -4.8125 C 2.484375 -4.644531 2.601562 -4.503906 2.84375 -4.390625 C 3.082031 -4.285156 3.375 -4.1875 3.71875 -4.09375 C 4.0625 -4 4.398438 -3.882812 4.734375 -3.75 C 5.078125 -3.613281 5.367188 -3.398438 5.609375 -3.109375 C 5.847656 -2.816406 5.96875 -2.457031 5.96875 -2.03125 C 5.96875 -1.363281 5.707031 -0.84375 5.1875 -0.46875 C 4.675781 -0.09375 4.003906 0.09375 3.171875 0.09375 C 2.003906 0.09375 1.015625 -0.21875 0.203125 -0.84375 L 0.875 -2.203125 C 1.65625 -1.648438 2.4375 -1.375 3.21875 -1.375 C 3.707031 -1.375 3.953125 -1.523438 3.953125 -1.828125 C 3.953125 -2.003906 3.832031 -2.148438 3.59375 -2.265625 C 3.363281 -2.378906 3.078125 -2.476562 2.734375 -2.5625 C 2.398438 -2.65625 2.066406 -2.769531 1.734375 -2.90625 C 1.398438 -3.039062 1.113281 -3.25 0.875 -3.53125 C 0.644531 -3.820312 0.53125 -4.1875 0.53125 -4.625 C 0.53125 -5.289062 0.78125 -5.804688 1.28125 -6.171875 C 1.78125 -6.535156 2.425781 -6.71875 3.21875 -6.71875 Z M 3.21875 -6.71875 "/></g></g></g></svg>