<svg width="28" height="28" viewBox="0 0 28 28" fill="none" xmlns="http://www.w3.org/2000/svg">
<path d="M22.1667 4.66699H5.83333C4.54467 4.66699 3.5 5.71166 3.5 7.00033C3.5 8.28899 4.54467 9.33366 5.83333 9.33366H22.1667C23.4553 9.33366 24.5 8.28899 24.5 7.00033C24.5 5.71166 23.4553 4.66699 22.1667 4.66699Z" stroke="black" stroke-width="2" stroke-linecap="round" stroke-linejoin="round"/>
<path d="M5.83334 9.33301V20.9997C5.83334 21.6185 6.07918 22.212 6.51676 22.6496C6.95435 23.0872 7.54784 23.333 8.16668 23.333H19.8333C20.4522 23.333 21.0457 23.0872 21.4833 22.6496C21.9208 22.212 22.1667 21.6185 22.1667 20.9997V9.33301" stroke="black" stroke-width="2" stroke-linecap="round" stroke-linejoin="round"/>
<path d="M11.6667 14H16.3333" stroke="black" stroke-width="2" stroke-linecap="round" stroke-linejoin="round"/>
</svg>
